<svg id="Layer_3" enable-background="new 0 0 64 64" height="512" viewBox="0 0 64 64" width="512" xmlns="http://www.w3.org/2000/svg"><g><path d="m49.678 19.322c4.524 4.524 7.322 10.774 7.322 17.678 0 13.807-11.193 25-25 25s-25-11.193-25-25 11.193-25 25-25v4c-11.598 0-21 9.402-21 21s9.402 21 21 21 21-9.402 21-21c0-5.799-2.351-11.049-6.151-14.849z" fill="#f4b2b0"/><path d="m50.849 12.151 2.828-2.828c-4.523-4.525-10.773-7.323-17.677-7.323v4c5.799 0 11.049 2.35 14.849 6.151z" fill="#f4b2b0"/><g fill="#b3404a"><path d="m32 11c-14.337 0-26 11.663-26 26 0 14.336 11.663 26 26 26 14.336 0 26-11.663 26-26 0-6.945-2.704-13.475-7.615-18.385-.39-.39-1.023-.389-1.415 0l-15.971 15.97v-22.585c0-.553-.447-1-.999-1zm23.974 26.999c-.242 5.864-2.598 11.188-6.325 15.236l-1.411-1.411c3.366-3.684 5.496-8.512 5.735-13.825zm-9.166 12.395-12.394-12.395h17.534c-.237 4.759-2.136 9.077-5.14 12.395zm-38.784-14.394c.242-5.864 2.598-11.189 6.325-15.236l1.411 1.411c-3.366 3.684-5.496 8.512-5.735 13.825zm9.166-12.395 12.395 12.395h-17.535c.237-4.76 2.137-9.078 5.14-12.395zm13.81 10.98-12.395-12.395c3.318-3.004 7.635-4.903 12.395-5.14zm-1.415 3.415-12.394 12.394c-3.004-3.317-4.903-7.635-5.14-12.394zm1.415 1.414v17.534c-4.759-.237-9.077-2.137-12.394-5.14zm1.999 0 12.395 12.395c-3.318 3.004-7.635 4.903-12.395 5.14zm1.414-3.414 12.401-12.401c3.114 3.435 4.909 7.769 5.136 12.401zm-3.413-20.975c-5.313.239-10.141 2.37-13.825 5.735l-1.412-1.412c4.048-3.726 9.372-6.087 15.237-6.328zm-22.953 22.975h1.977c.239 5.313 2.37 10.141 5.735 13.824l-1.416 1.416c-3.724-4.046-6.052-9.378-6.296-15.24zm7.712 16.655 1.416-1.416c3.684 3.365 8.512 5.496 13.825 5.735v2.005c-5.865-.242-11.194-2.599-15.241-6.324zm17.24 4.319c5.313-.239 10.141-2.369 13.825-5.735l1.412 1.412c-4.048 3.726-9.372 6.087-15.237 6.328zm16.664-38.224c3.867 4.195 6.057 9.547 6.29 15.249h-2.003c-.231-5.166-2.232-10-5.722-13.815z"/><path d="m36 28c.26 0 .516-.102.708-.293l17.677-17.677c.39-.391.39-1.024 0-1.415-4.911-4.911-11.44-7.615-18.385-7.615-.552 0-1 .447-1 1v25c0 .405.244.77.618.924.123.051.253.076.382.076zm1-20.952c4.632.228 8.965 2.023 12.401 5.137l-12.401 12.4zm15.249 2.288-1.434 1.434c-3.816-3.489-8.65-5.492-13.815-5.722v-2.028c5.703.232 11.052 2.448 15.249 6.316z"/><path d="m45 29c0 1.103.897 2 2 2s2-.897 2-2-.897-2-2-2c-1.104 0-2 .896-2 2z"/><path d="m48 42.999c1.103 0 2-.897 2-2s-.897-2-2-2-2 .897-2 2 .896 2 2 2z"/><path d="m37 46c-1.103 0-2 .897-2 2s.897 2 2 2 2-.897 2-2c-.001-1.104-.898-2-2-2z"/><path d="m26 50c-1.103 0-2 .897-2 2s.897 2 2 2 2-.897 2-2c-.001-1.104-.898-2-2-2z"/><path d="m18.999 42c0-1.103-.897-2-2-2s-2 .897-2 2 .897 2 2 2c1.103-.001 2-.898 2-2z"/><path d="m18 27c-1.103 0-2 .897-2 2s.897 2 2 2 2-.897 2-2c-.001-1.104-.898-2-2-2z"/><path d="m28 28.999c1.103 0 2-.897 2-2s-.897-2-2-2-2 .897-2 2 .896 2 2 2z"/><path d="m23.499 20.918h2v3.162h-2z" transform="matrix(.316 -.949 .949 .316 -4.593 38.626)"/><path d="m27 19h2v2h-2z"/><path d="m41 11c-1.103 0-2 .897-2 2s.897 2 2 2 2-.897 2-2c0-1.104-.897-2-2-2z"/><path d="m39 17h2v2h-2z"/><path d="m44 12h2v2h-2z"/><path d="m42.499 31.196h2.001v3.606h-2.001z" transform="matrix(.555 -.832 .832 .555 -8.087 50.888)"/><path d="m48 32h2v2h-2z"/><path d="m39.999 39.585h2v2.828h-2z" transform="matrix(.707 -.707 .707 .707 -16.983 40.999)"/><path d="m44.999 44.381h2v2.236h-2z" transform="matrix(.447 -.894 .894 .447 -15.268 66.294)"/><path d="m36 52h2v2h-2z"/><path d="m39.999 50.381h2v2.236h-2z" transform="matrix(.447 -.895 .895 .447 -23.397 65.146)"/><path d="m26.585 45.999h2.828v2h-2.828z" transform="matrix(.707 -.707 .707 .707 -25.033 33.564)"/><path d="m21 40h2v2h-2z"/><path d="m20 32h3v2h-3z"/><path d="m14.381 31.999h2.236v2h-2.236z" transform="matrix(.447 -.895 .895 .447 -20.948 32.109)"/></g></g></svg>